<?xml version="1.0" encoding="UTF-8" standalone="no"?>
<svg
   xmlns:dc="http://purl.org/dc/elements/1.1/"
   xmlns:cc="http://creativecommons.org/ns#"
   xmlns:rdf="http://www.w3.org/1999/02/22-rdf-syntax-ns#"
   xmlns:svg="http://www.w3.org/2000/svg"
   xmlns="http://www.w3.org/2000/svg"
   xmlns:sodipodi="http://sodipodi.sourceforge.net/DTD/sodipodi-0.dtd"
   xmlns:inkscape="http://www.inkscape.org/namespaces/inkscape"
   viewBox="0.0 0.0 348.0 348.0"
   fill="none"
   version="1.1"
   id="svg4534"
   sodipodi:docname="The Doomsday Button.svg"
   inkscape:version="1.0.1 (3bc2e813f5, 2020-09-07)">
  <style
     id="style991"></style>
  <metadata
     id="metadata4540">
    <rdf:RDF>
      <cc:Work
         rdf:about="">
        <dc:format>image/svg+xml</dc:format>
        <dc:type
           rdf:resource="http://purl.org/dc/dcmitype/StillImage" />
        <dc:title></dc:title>
      </cc:Work>
    </rdf:RDF>
  </metadata>
  <defs
     id="defs4538" />
  <sodipodi:namedview
     pagecolor="#ffffff"
     bordercolor="#666666"
     borderopacity="1"
     objecttolerance="10"
     gridtolerance="10"
     guidetolerance="10"
     inkscape:pageopacity="0"
     inkscape:pageshadow="2"
     inkscape:window-width="1920"
     inkscape:window-height="1001"
     id="namedview4536"
     showgrid="false"
     inkscape:zoom="1.5890805"
     inkscape:cx="174"
     inkscape:cy="174"
     inkscape:window-x="-9"
     inkscape:window-y="-9"
     inkscape:window-maximized="1"
     inkscape:current-layer="svg4534"
     inkscape:document-rotation="0" />
  <path
     d="M5.079 5.776h336.913v337.67H5.08z"
     stroke-width="2"
     stroke="#000"
     id="path4530" />
  <rect
     style="fill:#000000;fill-opacity:1;stroke:#000000;stroke-width:5.65883;stroke-miterlimit:4;stroke-dasharray:none;stroke-opacity:1"
     id="rect4542"
     width="172.20309"
     height="47.269463"
     x="86.840012"
     y="20.415901" />
  <circle
     style="fill:none;stroke:#002a00;stroke-width:1.938"
     id="path993"
     cx="302.06146"
     cy="42.050632"
     r="18.878841" />
  <rect
     style="fill:none;stroke:#002a00;stroke-width:2.21778"
     id="rect995"
     width="197.31877"
     height="197.31877"
     x="73.849991"
     y="107.23212" />
  <rect
     style="fill:#ffffff;stroke:#002a00;stroke-width:1.938"
     id="rect997"
     width="37.757683"
     height="13.21519"
     x="83.945747"
     y="100.68716" />
  <rect
     style="fill:#ffffff;stroke:#002a00;stroke-width:1.938"
     id="rect999"
     width="37.757683"
     height="13.21519"
     x="223.94574"
     y="100.68716" />
  <rect
     style="fill:none;stroke:#002a00;stroke-width:2;stroke-miterlimit:4;stroke-dasharray:none"
     id="rect1001"
     width="153.75775"
     height="153.75775"
     x="95.630501"
     y="129.01263" />
  <path
     style="fill:#ffffff;stroke:#002a00;stroke-width:2;stroke-miterlimit:4;stroke-dasharray:none"
     d="m 271.16876,107.23212 -21.78051,21.78051"
     id="path1007" />
  <path
     style="fill:#ffffff;stroke:#002a00;stroke-width:2;stroke-miterlimit:4;stroke-dasharray:none"
     d="m 73.849991,304.55089 21.78051,-21.7805"
     id="path1009" />
  <path
     style="fill:#ffffff;stroke:#002a00;stroke-width:2;stroke-miterlimit:4;stroke-dasharray:none"
     d="m 271.16876,304.55089 -21.78051,-21.7805"
     id="path1011" />
  <path
     style="fill:#ffffff;stroke:#002a00;stroke-width:2;stroke-miterlimit:4;stroke-dasharray:none"
     d="m 73.849991,107.23212 21.78051,21.78051"
     id="path1013" />
  <ellipse
     style="fill:none;stroke:#002a00;stroke-width:2;stroke-miterlimit:4;stroke-dasharray:none"
     id="path1015"
     cx="172.42676"
     cy="206.40868"
     rx="76.796257"
     ry="76.36171" />
  <g
     aria-label="##:##"
     id="text1019"
     style="font-style:normal;font-variant:normal;font-weight:normal;font-stretch:normal;font-size:40px;line-height:1.25;font-family:'Britannic Bold';-inkscape-font-specification:'Britannic Bold, ';fill:#ffffff">
    <path
       d="m 132.55935,32.031448 -1.19141,6.679688 h 4.00391 l -0.37109,2.207031 h -4.00391 l -1.07422,5.917969 h 4.00391 l -0.3711,2.207031 h -4.0039 l -1.17188,6.660156 h -4.53125 l 1.17188,-6.660156 h -3.86719 l -1.17188,6.660156 h -4.53125 l 1.17188,-6.660156 h -4.00391 l 0.3711,-2.207031 h 4.0039 l 1.07422,-5.917969 h -4.0039 l 0.37109,-2.207031 h 4.00391 l 1.17187,-6.679688 h 4.55078 l -1.1914,6.679688 h 3.86718 l 1.17188,-6.679688 z m -6.09375,8.886719 h -3.86719 l -1.07422,5.917969 h 3.86719 z"
       id="path1043" />
    <path
       d="m 161.64138,32.031448 -1.19141,6.679688 h 4.00391 l -0.37109,2.207031 h -4.00391 l -1.07422,5.917969 h 4.00391 l -0.3711,2.207031 h -4.0039 l -1.17188,6.660156 h -4.53125 l 1.17188,-6.660156 h -3.86719 l -1.17187,6.660156 h -4.53125 l 1.17187,-6.660156 h -4.00391 l 0.3711,-2.207031 h 4.0039 l 1.07422,-5.917969 h -4.0039 l 0.37109,-2.207031 h 4.00391 l 1.17187,-6.679688 h 4.55078 l -1.1914,6.679688 h 3.86718 l 1.17188,-6.679688 z m -6.09375,8.886719 h -3.86719 l -1.07422,5.917969 h 3.86719 z"
       id="path1045" />
    <path
       d="m 173.32107,50.761917 q 3.4375,0 3.4375,3.4375 0,3.4375 -3.4375,3.4375 -3.4375,0 -3.4375,-3.4375 0,-3.4375 3.4375,-3.4375 z m 0,-12.226562 q 3.4375,0 3.4375,3.4375 0,3.4375 -3.4375,3.4375 -3.4375,0 -3.4375,-3.4375 0,-3.4375 3.4375,-3.4375 z"
       id="path1047" />
    <path
       d="m 202.14919,32.031448 -1.1914,6.679688 h 4.0039 l -0.37109,2.207031 h -4.00391 l -1.07422,5.917969 h 4.00391 l -0.37109,2.207031 h -4.00391 l -1.17187,6.660156 h -4.53125 l 1.17187,-6.660156 h -3.86719 l -1.17187,6.660156 h -4.53125 l 1.17187,-6.660156 h -4.0039 l 0.37109,-2.207031 h 4.00391 l 1.07422,-5.917969 h -4.00391 l 0.37109,-2.207031 h 4.00391 l 1.17187,-6.679688 h 4.55079 l -1.19141,6.679688 h 3.86719 l 1.17187,-6.679688 z m -6.09375,8.886719 h -3.86718 l -1.07422,5.917969 h 3.86718 z"
       id="path1049" />
    <path
       d="m 231.23122,32.031448 -1.1914,6.679688 h 4.0039 l -0.37109,2.207031 h -4.00391 l -1.07421,5.917969 h 4.0039 l -0.37109,2.207031 h -4.00391 l -1.17187,6.660156 h -4.53125 l 1.17187,-6.660156 h -3.86719 l -1.17187,6.660156 h -4.53125 l 1.17187,-6.660156 h -4.0039 l 0.37109,-2.207031 h 4.00391 l 1.07422,-5.917969 h -4.00391 l 0.37109,-2.207031 h 4.00391 l 1.17188,-6.679688 h 4.55078 l -1.19141,6.679688 h 3.86719 l 1.17187,-6.679688 z m -6.09375,8.886719 h -3.86718 l -1.07422,5.917969 h 3.86719 z"
       id="path1051" />
  </g>
  <ellipse
     style="fill:none;stroke:#002a00;stroke-width:2.16957;stroke-miterlimit:4;stroke-dasharray:none"
     id="ellipse1021"
     cx="172.42676"
     cy="206.40868"
     rx="71.787056"
     ry="71.380859" />
  <ellipse
     style="fill:none;stroke:#002a00;stroke-width:2;stroke-miterlimit:4;stroke-dasharray:none"
     id="ellipse1023"
     cx="172.42676"
     cy="206.40868"
     rx="41.863766"
     ry="41.626884" />
  <ellipse
     style="fill:none;stroke:#002a00;stroke-width:2.01884;stroke-miterlimit:4;stroke-dasharray:none"
     id="ellipse1025"
     cx="172.42676"
     cy="206.40868"
     rx="66.799843"
     ry="66.421867" />
  <path
     style="fill:#000000;stroke-width:0.0852206"
     d="m 167.72976,238.65319 c -1.26502,-0.10302 -2.90638,-0.37958 -3.82987,-0.64531 -1.79809,-0.5174 -3.44781,-1.70822 -4.00745,-2.89269 -1.08199,-2.29005 -2.66419,-9.418 -2.78946,-12.56681 -0.0451,-1.13255 -0.034,-1.27399 0.12789,-1.64005 0.32561,-0.7361 0.82846,-0.74004 1.29136,-0.0101 0.53423,0.84239 1.03048,2.63494 1.36619,4.9349 0.25713,1.76169 0.50077,2.48441 0.92492,2.74365 0.15577,0.0952 0.2099,0.003 0.83462,-1.42744 0.36743,-0.84109 0.6908,-1.52926 0.71859,-1.52926 0.0278,0 0.46103,0.84006 0.96272,1.8668 0.50169,1.02673 0.95882,1.90432 1.01583,1.95019 0.057,0.0459 0.3881,0.1852 0.73575,0.30963 0.49715,0.17794 0.64665,0.20279 0.70032,0.11641 0.0375,-0.0604 0.3841,-0.83475 0.77015,-1.72077 l 0.70192,-1.61094 1.07794,2.21561 1.07794,2.2156 0.3321,0.0549 c 0.80434,0.13286 0.69818,0.24989 1.57183,-1.7329 0.4337,-0.9843 0.81154,-1.78831 0.83966,-1.7867 0.0281,0.002 0.41524,0.75492 0.86025,1.67401 0.44502,0.91908 0.84769,1.72022 0.89482,1.78029 0.0669,0.0853 0.19766,0.0897 0.59702,0.0201 0.28122,-0.049 0.55026,-0.12006 0.59786,-0.15788 0.0476,-0.0378 0.48861,-0.9915 0.98003,-2.11925 0.49143,-1.12776 0.91353,-2.05092 0.93801,-2.05145 0.0245,-5.1e-4 0.38794,0.68931 0.8077,1.53299 0.41976,0.84368 0.8024,1.53171 0.85032,1.52894 0.0479,-0.003 0.4126,-0.16575 0.81042,-0.36218 l 0.72331,-0.35716 0.76805,-1.76685 c 0.42243,-0.97177 0.78776,-1.76752 0.81186,-1.76833 0.0241,-8.5e-4 0.36255,0.63739 0.75212,1.41823 l 0.70831,1.41971 0.16513,-0.24793 c 0.2926,-0.43931 0.42362,-1.07119 0.50232,-2.42261 0.11107,-1.90727 0.36319,-2.99606 0.94772,-4.09275 0.66527,-1.24817 1.47222,-1.44651 1.96392,-0.48269 0.16455,0.32253 0.17645,0.44699 0.13191,1.3792 -0.13159,2.75424 -1.80215,9.56115 -2.9495,12.01814 -0.37475,0.80251 -0.90502,1.33384 -1.89067,1.89446 -1.73708,0.98801 -4.94506,1.82872 -8.38581,2.19766 -1.50097,0.16095 -4.71965,0.22559 -6.00805,0.12067 z m 5.89704,-12.0608 -0.95731,-1.91687 -0.65023,0.0249 -0.65022,0.0249 -0.81328,1.85355 c -0.4473,1.01946 -0.83807,1.85355 -0.86838,1.85355 -0.0303,0 -0.52066,-0.95357 -1.08967,-2.11905 l -1.03457,-2.11905 -0.52187,-0.10267 c -0.28702,-0.0565 -0.56755,-0.1202 -0.62339,-0.14163 -0.0636,-0.0244 -0.38451,0.60481 -0.85946,1.6853 l -0.75794,1.72426 -1.13459,-2.33053 c -0.71211,-1.46272 -1.13463,-2.42917 -1.1347,-2.59544 -1.7e-4,-0.38073 -0.38916,-1.932 -0.65098,-2.59599 -0.46259,-1.17314 -1.13456,-1.87669 -2.10521,-2.20414 -0.38291,-0.12917 -0.81244,-0.14849 -3.33698,-0.15008 -3.40479,-0.002 -3.53072,-0.0246 -4.25988,-0.76053 -0.82477,-0.83237 -1.23979,-2.03868 -1.07244,-3.11723 0.15023,-0.96828 0.42667,-1.67275 1.99158,-5.07528 0.25946,-0.56413 0.55665,-1.27359 0.66043,-1.57658 0.26351,-0.76932 0.31876,-1.98738 0.12887,-2.84093 -0.12799,-0.57525 -0.19962,-0.71305 -0.62874,-1.20946 -3.29891,-3.81622 -4.39978,-8.66471 -3.12375,-13.75767 0.91688,-3.65948 2.822,-6.99557 5.66334,-9.91717 2.78613,-2.86485 5.89449,-4.70167 9.03483,-5.33896 3.58418,-0.72736 8.42042,-0.64513 12.8817,0.21902 3.44934,0.66814 6.33221,1.6182 8.96699,2.95511 1.05674,0.5362 1.28937,0.69528 1.95746,1.33855 2.85264,2.74667 4.91376,6.75482 5.72094,11.12519 0.66262,3.5877 0.38225,7.02025 -0.7968,9.75509 -0.60482,1.40289 -1.11037,2.09471 -2.88276,3.94495 l -1.63612,1.70798 0.17838,0.35022 c 0.0981,0.19261 0.59523,1.12832 1.10471,2.07935 2.25314,4.20591 2.82791,5.5516 2.8286,6.62248 5.1e-4,0.79164 -0.22943,1.2601 -1.02956,2.09759 -1.11346,1.16544 -2.0511,1.41174 -4.17309,1.09617 -1.63541,-0.24321 -2.85956,-0.24574 -3.60493,-0.007 -1.37337,0.43905 -2.206,1.61932 -2.63784,3.73921 -0.098,0.48118 -0.19223,1.10308 -0.20935,1.38201 -0.0259,0.42192 -0.19257,0.87638 -0.99187,2.7044 -0.52842,1.20849 -0.98524,2.226 -1.01516,2.26113 -0.0299,0.0351 -0.41386,-0.68574 -0.85318,-1.60194 -0.43933,-0.9162 -0.82355,-1.68114 -0.85384,-1.69985 -0.0528,-0.0326 -1.26755,0.25514 -1.31967,0.31259 -0.0139,0.0153 -0.43613,0.96738 -0.93833,2.11573 -0.5022,1.14835 -0.92014,2.09563 -0.92876,2.10506 -0.009,0.009 -0.44646,-0.84543 -0.97298,-1.89971 z m -2.73732,-6.67556 c 0.16964,-0.16964 0.2491,-0.33454 0.2491,-0.51692 0,-0.35182 0.13788,-0.5975 0.33532,-0.5975 0.0874,0 0.35448,0.13422 0.59355,0.29827 0.23906,0.16405 0.63026,0.4325 0.86933,0.59655 0.72604,0.49822 1.16011,0.41061 2.01145,-0.40595 1.21385,-1.16427 1.19679,-1.6972 -0.14718,-4.59754 -1.03395,-2.23129 -2.35705,-4.4265 -2.81599,-4.67211 -0.39496,-0.21138 -1.49702,1.31702 -2.6752,3.71016 -1.14726,2.3303 -1.65725,3.81359 -1.53722,4.47094 0.16184,0.88636 0.98364,1.57047 2.20598,1.83637 0.28645,0.0623 0.55252,0.11634 0.59128,0.12007 0.0388,0.004 0.18257,-0.10533 0.31958,-0.24234 z m -7.93016,-10.30416 c 0.58562,-0.20158 1.28665,-0.55294 1.78506,-0.89468 0.95806,-0.6569 2.32297,-2.17159 3.13969,-3.48424 0.57498,-0.92413 1.51585,-2.85635 1.43179,-2.94042 -0.0928,-0.0928 -11.26647,-3.82362 -11.31935,-3.77944 -0.10641,0.0889 -0.39907,2.10057 -0.49519,3.40391 -0.22362,3.03192 0.36153,5.46751 1.63123,6.78978 0.55464,0.57759 1.13621,0.92292 1.78342,1.05895 0.5278,0.11094 1.48302,0.039 2.04335,-0.15386 z m 20.18292,-0.002 c 2.53689,-0.96394 3.55341,-4.84363 2.64753,-10.10462 -0.0894,-0.51921 -0.16281,-0.97133 -0.16312,-1.00471 -5.1e-4,-0.0544 -11.31902,3.7235 -11.40095,3.80543 -0.0611,0.0611 0.96286,2.11889 1.42139,2.85652 2.19513,3.53134 5.20528,5.31746 7.49515,4.44738 z"
     id="path1041" />
</svg>
